<?xml version="1.0" encoding="utf-8"?>
<!-- Generator: Adobe Illustrator 25.2.3, SVG Export Plug-In . SVG Version: 6.00 Build 0)  -->
<svg version="1.1" id="Lager_1" xmlns="http://www.w3.org/2000/svg" xmlns:xlink="http://www.w3.org/1999/xlink" x="0px" y="0px"
	 viewBox="0 0 60 60" style="enable-background:new 0 0 60 60;" xml:space="preserve">
<style type="text/css">
	.st0{fill:#FFFFFF;}
	.st1{fill-rule:evenodd;clip-rule:evenodd;fill:#FFFFFF;}
</style>
<path class="st0" d="M30,2c15.44,0,28,12.56,28,28S45.44,58,30,58S2,45.44,2,30S14.56,2,30,2 M30,0C13.43,0,0,13.43,0,30
	s13.43,30,30,30s30-13.43,30-30S46.57,0,30,0L30,0z"/>
<path class="st1" d="M31.78,25.92c0.11-0.12,0.15-0.15,0.18-0.2c1.49-2.17,3.61-2.81,6.09-2.43c2.86,0.44,4.69,2.44,5.16,5.51
	c0.11,0.73,0.17,1.46,0.17,2.19c0,3.05-0.01,6.1,0.01,9.16c0,0.34-0.08,0.44-0.43,0.44c-1.6-0.02-3.2-0.02-4.8,0
	c-0.35,0-0.44-0.1-0.44-0.44c0.01-2.85,0.01-5.69,0.01-8.54c0-0.65-0.05-1.29-0.23-1.92c-0.58-2.01-2.87-2.71-4.5-1.38
	c-0.88,0.72-1.22,1.68-1.22,2.8c0.01,2.69,0,5.37,0,8.06c0,0.35-0.02,0.71,0.01,1.06c0.02,0.3-0.1,0.36-0.38,0.36
	c-1.63-0.01-3.26-0.01-4.89,0c-0.3,0-0.4-0.06-0.4-0.38c0.02-2.42,0.03-4.84,0.03-7.26c0-2.98-0.01-5.96-0.03-8.94
	c0-0.33,0.07-0.42,0.4-0.42c1.63,0.02,3.26,0.02,4.89,0c0.29,0,0.38,0.09,0.37,0.37C31.77,24.57,31.78,25.19,31.78,25.92z"/>
<path class="st1" d="M23.03,32.09c0,2.68-0.01,5.37,0.01,8.05c0,0.33-0.07,0.45-0.43,0.45c-1.61-0.02-3.23-0.02-4.84,0
	c-0.3,0-0.4-0.07-0.4-0.39c0.01-5.41,0.01-10.83,0-16.24c0-0.28,0.07-0.38,0.36-0.37c1.64,0.01,3.29,0.02,4.93,0
	c0.33,0,0.38,0.12,0.38,0.41C23.02,26.69,23.03,29.39,23.03,32.09z"/>
<path class="st1" d="M20.24,15.41c2.16,0,3.57,1.72,3.06,3.73c-0.39,1.52-1.96,2.39-3.77,2.1c-1.93-0.31-3-2.19-2.29-4.01
	C17.68,16.09,18.81,15.41,20.24,15.41z"/>
</svg>
