<?xml version="1.0" encoding="utf-8"?>
<!-- Generator: Adobe Illustrator 25.2.3, SVG Export Plug-In . SVG Version: 6.00 Build 0)  -->
<svg version="1.1" id="Lager_1" xmlns="http://www.w3.org/2000/svg" xmlns:xlink="http://www.w3.org/1999/xlink" x="0px" y="0px"
	 viewBox="0 0 80 80" style="enable-background:new 0 0 80 80;" xml:space="preserve">
<style type="text/css">
	.st0{fill:#FA382F;}
</style>
<path class="st0" d="M40,2c20.95,0,38,17.05,38,38S60.95,78,40,78S2,60.95,2,40S19.05,2,40,2 M40,0C17.91,0,0,17.91,0,40
	s17.91,40,40,40s40-17.91,40-40S62.09,0,40,0L40,0z"/>
<path class="st0" d="M54.03,35.5c-0.01-1.94-0.68-3.82-1.9-5.32c0.41-1.72,0.28-3.53-0.37-5.18c-0.13-0.32-0.39-0.56-0.72-0.66
	c-0.46-0.16-2.21-0.46-5.78,1.86c-1.53-0.4-3.12-0.6-4.7-0.57c-1.59-0.03-3.17,0.16-4.71,0.57c-3.66-2.36-5.56-1.98-5.95-1.87
	c-0.33,0.11-0.59,0.35-0.72,0.67c-0.66,1.64-0.79,3.45-0.38,5.17c-1.26,1.5-1.93,3.41-1.89,5.36c0,7.31,4.18,9.51,8.01,10.29
	c-0.2,0.48-0.33,0.98-0.4,1.5c-0.01,0.05-0.01,0.11,0,0.17v2.02c-3.49,0.29-4.23-1.75-4.31-1.98c-0.02-0.05-0.04-0.11-0.06-0.16
	c-0.67-1.37-1.86-2.43-3.3-2.94c-0.61-0.2-1.26,0.12-1.46,0.73c-0.2,0.61,0.12,1.26,0.73,1.46c0.8,0.29,1.47,0.86,1.88,1.61
	c0.46,1.5,2.35,3.87,6.51,3.61v1.9c0,0.64,0.52,1.16,1.16,1.16s1.16-0.52,1.16-1.16v-6.16c0.09-0.67,0.38-1.3,0.84-1.8
	c0.46-0.43,0.49-1.16,0.05-1.62c-0.19-0.2-0.44-0.33-0.71-0.36c-4.03-0.47-7.75-1.8-7.75-8.3c-0.05-1.59,0.56-3.13,1.69-4.24
	c0.31-0.33,0.41-0.8,0.26-1.23c-0.39-1.13-0.41-2.36-0.07-3.5c1.42,0.32,2.75,0.94,3.9,1.83c0.3,0.2,0.67,0.25,1.02,0.14
	c1.47-0.45,3-0.65,4.53-0.61c1.53-0.04,3.06,0.17,4.52,0.61c0.34,0.11,0.72,0.06,1.02-0.14c1.11-0.85,2.38-1.47,3.74-1.82
	c0.34,1.16,0.31,2.39-0.09,3.53c-0.13,0.39-0.05,0.82,0.22,1.12c1.09,1.17,1.71,2.7,1.74,4.3c0,6.49-3.92,7.84-7.75,8.3
	c-0.63,0.07-1.09,0.64-1.02,1.27c0.04,0.32,0.2,0.61,0.46,0.8c0.41,0.31,0.89,1.18,0.89,2.64v5.23c0,0.64,0.52,1.16,1.16,1.16
	s1.16-0.52,1.16-1.16V48.5c0.01-0.92-0.16-1.83-0.5-2.69C49.23,45.15,54.03,43.11,54.03,35.5z"/>
</svg>
