<?xml version="1.0" encoding="utf-8"?>
<!-- Generator: Adobe Illustrator 25.2.3, SVG Export Plug-In . SVG Version: 6.00 Build 0)  -->
<svg version="1.1" id="Lager_1" xmlns="http://www.w3.org/2000/svg" xmlns:xlink="http://www.w3.org/1999/xlink" x="0px" y="0px"
	 viewBox="0 0 80 80" style="enable-background:new 0 0 80 80;" xml:space="preserve">
<style type="text/css">
	.st0{fill:#FA382F;}
</style>
<path class="st0" d="M40,2c20.95,0,38,17.05,38,38S60.95,78,40,78S2,60.95,2,40S19.05,2,40,2 M40,0C17.91,0,0,17.91,0,40
	s17.91,40,40,40s40-17.91,40-40S62.09,0,40,0L40,0z"/>
<polygon class="st0" points="49.06,50.79 49.06,42 51.99,42 51.99,53.72 25.63,53.72 25.63,42 28.56,42 28.56,50.79 "/>
<path class="st0" d="M31.78,41.19l14.34,3.01l0.6-2.87l-14.34-3.01L31.78,41.19z M33.68,34.33l13.28,6.19l1.24-2.66l-13.28-6.19
	L33.68,34.33z M37.36,27.81l11.26,9.38l1.88-2.25l-11.26-9.38L37.36,27.81z M44.63,20.88l-2.35,1.75l8.75,11.76l2.35-1.75
	L44.63,20.88z M31.49,47.86h14.65v-2.93H31.49V47.86z"/>
</svg>
