<?xml version="1.0" encoding="utf-8"?>
<!-- Generator: Adobe Illustrator 25.2.3, SVG Export Plug-In . SVG Version: 6.00 Build 0)  -->
<svg version="1.1" id="Lager_1" xmlns="http://www.w3.org/2000/svg" xmlns:xlink="http://www.w3.org/1999/xlink" x="0px" y="0px"
	 viewBox="0 0 60 60" style="enable-background:new 0 0 60 60;" xml:space="preserve">
<style type="text/css">
	.st0{fill:#FFFFFF;}
</style>
<path class="st0" d="M30,2c15.44,0,28,12.56,28,28S45.44,58,30,58S2,45.44,2,30S14.56,2,30,2 M30,0C13.43,0,0,13.43,0,30
	s13.43,30,30,30s30-13.43,30-30S46.57,0,30,0L30,0z"/>
<polygon class="st0" points="39.06,40.59 39.06,31.8 41.99,31.8 41.99,43.52 15.63,43.52 15.63,31.8 18.56,31.8 18.56,40.59 "/>
<path class="st0" d="M21.78,30.99L36.12,34l0.6-2.87l-14.34-3.01L21.78,30.99z M23.68,24.13l13.28,6.19l1.24-2.66l-13.28-6.19
	L23.68,24.13z M27.36,17.61l11.26,9.38l1.88-2.25l-11.26-9.38L27.36,17.61z M34.63,10.68l-2.35,1.75l8.75,11.76l2.35-1.75
	L34.63,10.68z M21.49,37.66h14.65v-2.93H21.49V37.66z"/>
</svg>
